<svg aria-hidden="true" style="position:absolute;width:0;height:0;overflow:hidden" xmlns="http://www.w3.org/2000/svg"><defs><symbol id="icon-basket" viewBox="0 0 32 32"><path d="M11.867 14.063a1 1 0 0 0 1-1v-3.9c0-1.744 1.418-3.162 3.162-3.162s3.163 1.419 3.163 3.162v3.9a1 1 0 0 0 2 0v-3.9c0-2.846-2.316-5.162-5.162-5.162s-5.162 2.316-5.162 5.162v3.9a1 1 0 0 0 1 1z"/><path d="M27.5 11.816h-5.308v1.247c0 1.103-.897 2-2 2s-2-.897-2-2v-1.247h-4.325v1.247c0 1.103-.897 2-2 2s-2-.897-2-2v-1.247H4.5c-.276 0-.447.217-.381.486l3.499 14.249c.211.801 1.054 1.45 1.882 1.45h13c.829 0 1.671-.649 1.883-1.45l3.498-14.248c.066-.268-.105-.486-.381-.486z"/></symbol></defs></svg>